<?xml version="1.0" standalone="no"?>
<!DOCTYPE svg PUBLIC "-//W3C//DTD SVG 1.1//EN" "http://www.w3.org/Graphics/SVG/1.1/DTD/svg11.dtd" >
<svg xmlns="http://www.w3.org/2000/svg">
<metadata>Generated by IcoMoon</metadata>
<defs>
<font id="icomoon" horiz-adv-x="1024">
<font-face units-per-em="1024" ascent="960" descent="-64" />
<missing-glyph horiz-adv-x="1024" />
<glyph unicode="&#x20;" horiz-adv-x="512" d="" />
<glyph unicode="&#xe900;" glyph-name="address-user" d="M512.002 499.2c42.414 0 76.8 34.386 76.8 76.8s-34.386 76.8-76.8 76.8-76.8-34.385-76.8-76.8c0-42.414 34.386-76.8 76.8-76.8zM512.002 960.001c-107.928 0.006-211.495-42.586-288.192-118.517s-120.328-179.065-121.408-286.986c0-280.578 360.96-592.893 376.32-606.204 9.272-7.936 21.074-12.293 33.28-12.293 12.2 0 24.002 4.357 33.28 12.293 17.92 13.312 376.315 325.627 376.315 606.204-1.075 107.921-44.708 211.055-121.405 286.986s-180.265 118.523-288.19 118.517zM512.002 396.8c-35.446 0-70.087 10.511-99.558 30.203s-52.439 47.677-66.001 80.42c-13.564 32.748-17.112 68.778-10.198 103.538s23.982 66.691 49.043 91.753c25.062 25.061 56.99 42.128 91.756 49.043 34.759 6.914 70.789 3.366 103.537-10.198 32.742-13.562 60.728-36.532 80.42-66.001s30.203-64.115 30.203-99.558c0-47.525-18.882-93.108-52.49-126.71-33.602-33.607-79.186-52.49-126.709-52.49z" />
<glyph unicode="&#xe901;" d="M878.334 30.315c0-52.091-164.010-94.316-366.329-94.316s-366.331 42.225-366.331 94.316c0 52.086 164.012 94.31 366.331 94.31s366.329-42.225 366.329-94.31z" />
<glyph unicode="&#xe902;" glyph-name="arrow-right" d="M466.746 941.255c24.994 24.994 65.516 24.994 90.51 0l448-448.001c24.992-24.994 24.992-65.516 0-90.51l-448-448c-24.994-24.992-65.516-24.992-90.51 0s-24.993 65.517 0 90.509l338.747 338.747h-741.492c-35.346 0-64 28.654-64 64s28.654 64 64 64h741.492l-338.747 338.746c-24.993 24.994-24.993 65.516 0 90.51z" />
<glyph unicode="&#xe903;" glyph-name="bell" d="M511.771 960c-92.585 0-181.377-36.779-246.845-102.246s-102.246-154.26-102.246-246.845v-272.291l-77.266-116.364c-9.261-14.28-14.514-30.785-15.209-47.788-0.695-17.008 3.193-33.885 11.258-48.873s20.009-27.532 34.584-36.319c14.575-8.792 31.244-13.498 48.263-13.638h694.924c17.129 0.056 33.922 4.748 48.603 13.568 14.68 8.825 26.703 21.457 34.788 36.557s11.939 32.107 11.148 49.217c-0.791 17.11-6.2 33.685-15.644 47.974l-77.265 115.665v272.291c0 92.584-36.78 181.377-102.246 246.845s-154.261 102.246-246.845 102.246zM511.799-64c28.849 0.033 56.981 9.002 80.524 25.67 23.547 16.668 41.351 40.22 50.967 67.421h-262.982c9.616-27.201 27.421-50.753 50.966-67.421s51.676-25.637 80.525-25.67z" />
<glyph unicode="&#xe904;" glyph-name="calander" d="M266.24 949.76c22.621 0 40.96-18.338 40.96-40.96v-81.92h163.84v81.92c0 22.622 18.338 40.96 40.96 40.96s40.96-18.338 40.96-40.96v-81.92h163.84v81.92c0 22.622 18.338 40.96 40.96 40.96s40.96-18.338 40.96-40.96v-81.92h81.92c56.537 0 102.4-45.864 102.4-102.4v-675.84c0-56.537-45.863-102.4-102.4-102.4h-737.28c-56.536 0-102.4 45.863-102.4 102.4v675.84c0 56.536 45.864 102.4 102.4 102.4h81.92v81.92c0 22.622 18.339 40.96 40.96 40.96zM143.36 744.96c-11.293 0-20.48-9.187-20.48-20.48v-81.92h778.24v81.92c0 11.293-9.187 20.48-20.48 20.48h-737.28zM901.12 560.64h-778.24v-512c0-11.293 9.187-20.48 20.48-20.48h737.28c11.293 0 20.48 9.187 20.48 20.48v512zM389.12 519.68c22.622 0 40.96-18.338 40.96-40.96v-143.36h163.84v143.36c0 22.622 18.338 40.96 40.96 40.96s40.96-18.338 40.96-40.96v-143.36h143.36c22.622 0 40.96-18.338 40.96-40.96s-18.338-40.96-40.96-40.96h-143.36v-143.36c0-22.622-18.338-40.96-40.96-40.96s-40.96 18.338-40.96 40.96v143.36h-163.84v-143.36c0-22.622-18.338-40.96-40.96-40.96s-40.96 18.338-40.96 40.96v143.36h-143.36c-22.621 0-40.96 18.338-40.96 40.96s18.339 40.96 40.96 40.96h143.36v143.36c0 22.622 18.339 40.96 40.96 40.96z" />
<glyph unicode="&#xe905;" glyph-name="camera" d="M511.991 232.97c90.487 0 163.841 73.354 163.841 163.84s-73.354 163.841-163.841 163.841c-90.486 0-163.84-73.354-163.84-163.841s73.354-163.84 163.84-163.84zM264.705 806.402l93.697 102.4h307.2l93.698-102.4h162.302c56.318 0 102.398-46.080 102.398-102.4v-614.404c0-56.318-46.080-102.398-102.398-102.398h-819.202c-56.32 0-102.4 46.080-102.4 102.398v614.404c0 56.32 46.080 102.4 102.4 102.4h162.304zM256.001 396.8c0-141.312 114.688-256 256-256s256 114.688 256 256c0 141.312-114.688 256.001-256 256.001s-256-114.689-256-256.001z" />
<glyph unicode="&#xe906;" glyph-name="cart" d="M0 895.999c0 23.564 19.102 42.667 42.667 42.667h170.667c20.336 0 37.845-14.352 41.837-34.293l35.835-179.040h690.328c12.714 0 24.768-5.671 32.875-15.469s11.418-22.699 9.037-35.19l-68.326-358.292c-5.853-29.466-21.884-55.936-45.286-74.773-23.284-18.743-52.39-28.744-82.265-28.276h-413.984c-29.878-0.47-58.984 9.532-82.268 28.276-23.391 18.833-39.417 45.286-45.275 74.735l-71.276 356.117c-0.289 1.178 71.276-356.117 62.005-309.793l-98.206 490.666h-135.693c-23.564 0-42.667 19.102-42.667 42.667zM308.084 640l61.444-306.995c1.951-9.822 7.294-18.645 15.094-24.921 7.8-6.281 17.56-9.617 27.572-9.425l0.817 0.009 415.539-0.009c10.010-0.192 19.771 3.144 27.571 9.425 7.765 6.25 13.095 15.019 15.066 24.785l58.572 307.131h-621.677zM298.667 42.667c0 47.13 38.205 85.333 85.333 85.333 47.13 0 85.333-38.204 85.333-85.333s-38.204-85.333-85.333-85.333c-47.128 0-85.333 38.204-85.333 85.333zM767.999 42.667c0 47.13 38.204 85.333 85.333 85.333s85.333-38.204 85.333-85.333c0-47.13-38.204-85.333-85.333-85.333s-85.333 38.204-85.333 85.333z" />
<glyph unicode="&#xe907;" glyph-name="check" d="M1007.339 801.116c22.215-22.216 22.215-58.236 0-80.454l-625.778-625.778c-22.217-22.215-58.236-22.215-80.454 0l-284.445 284.444c-22.216 22.217-22.216 58.236 0 80.454s58.236 22.216 80.454 0l244.218-244.219 585.553 585.553c22.215 22.216 58.237 22.216 80.452 0z" />
<glyph unicode="&#xe908;" glyph-name="chevron-left" d="M783.149 938.578c28.564-28.564 28.564-74.875 0-103.44l-387.139-387.138 387.139-387.139c28.564-28.562 28.564-74.876 0-103.439s-74.876-28.562-103.44 0l-438.858 438.857c-28.564 28.564-28.564 74.876 0 103.44l438.858 438.858c28.564 28.564 74.876 28.564 103.44 0z" />
<glyph unicode="&#xe909;" glyph-name="chevron-right" d="M240.851 938.577c28.564 28.564 74.875 28.564 103.44 0l438.858-438.858c28.564-28.564 28.564-74.876 0-103.44l-438.858-438.857c-28.564-28.562-74.876-28.562-103.44 0s-28.564 74.876 0 103.439l387.139 387.139-387.139 387.138c-28.564 28.564-28.564 74.876 0 103.44z" />
<glyph unicode="&#xe90a;" glyph-name="credit-card" d="M1024 640.013v127.999c0 38.4-25.601 64-63.996 64h-896.003c-38.4 0-64-25.6-64-64v-127.999h1023.999zM0 511.987v-383.998c0-38.401 25.6-64.002 64-64.002h896.003c38.395 0 63.996 25.601 63.996 64.002v383.998h-1023.999zM384.001 255.982h-256v64.002h256v-64.002zM767.998 255.982v64.002h128.003v-64.002h-128.003z" />
<glyph unicode="&#xe90b;" glyph-name="delete-user" d="M892.025 392.948c68.808-42.662 111.476-119.537 111.476-200.342 0-87.491-50.135-169.868-127.992-209.976-32.635-16.709-69.796-25.773-107.344-25.773-29.295 0-58.197 5.507-85.133 15.746-19.858 7.472-38.536 17.499-55.441 30.065-65.472 48.362-101.842 128.794-95.159 209.993 6.882 79.999 55.445 152.763 127.206 189.705 32.832 16.909 70.013 25.773 107.737 25.773 7.669 0 15.534-0.414 23.005-1.375 36.37-3.145 71.171-14.744 101.645-33.815zM878.85 275.966c7.669 7.669 7.669 20.054 0 27.722-7.685 7.669-20.251 7.669-27.915 0l-83.364-83.36-83.36 83.36c-7.665 7.669-20.23 7.669-27.915 0-7.669-7.689-7.669-20.075 0-27.722l83.556-83.556-83.556-83.36c-7.669-7.669-7.669-20.054 0-27.722 3.93-3.91 8.843-5.7 13.957-5.7 5.11 0 10.027 1.789 13.957 5.7l83.36 83.36 83.364-83.36c3.93-3.91 8.847-5.7 13.957-5.7 5.114 0 10.027 1.789 13.957 5.7 7.669 7.689 7.669 20.075 0 27.722l-83.36 83.36 83.36 83.556zM698.774 713.584c0-61.125-24.771-118.357-69.992-161.216-9.044-8.631-18.87-16.515-29.094-23.378-38.536-26.343-84.347-41.090-130.35-41.090-34.802 0-68.42 8.259-99.681 24.361-8.847 4.52-17.104 9.634-25.166 14.961-0.197 0.393-0.197 0.393-0.394 0.393-57.015 39.912-94.174 106.169-97.32 175.767-3.54 81.571 37.159 159.054 106.364 202.091 35.585 22.217 76.873 33.816 119.732 33.816 39.322 0 77.661-10.027 111.279-28.921 70.582-40.284 114.62-115.584 114.62-196.782zM614.051 491.473c33.209-7.276 66.041-17.303 97.714-29.688-24.578-4.913-48.169-13.172-70.189-24.378-83.556-43.256-140.377-127.992-148.242-221.379-8.058-94.763 34.409-188.547 110.906-244.97 2.932-2.162 5.9-4.344 8.827-6.293-186.578-21.626-376.695 0.414-553.817 64.686-23.219 8.45-38.751 30.67-38.751 55.441v136.835c0 74.123 37.159 142.13 99.679 182.253 64.093 41.090 134.085 70.385 208.401 86.902 7.471-4.917 15.139-9.417 23.199-13.548 36.962-19.088 76.479-28.701 117.57-28.701 50.724-0.020 101.449 15.313 144.701 42.838z" />
<glyph unicode="&#xe90c;" glyph-name="diamond" d="M497.147 150.275c0.017 50.614 13.675 100.286 39.534 143.792 25.855 43.506 62.962 79.239 107.416 103.439 44.449 24.201 94.603 35.976 145.179 34.081s99.706-17.382 142.226-44.837c0.299 20.86 0.457 43.118 0.457 67.139 0 123.498-4.198 200.577-12.497 280.415h1.178c-4.587 44.488-21.577 86.794-49.036 122.1-27.455 35.305-64.272 62.192-106.259 77.596-2.219 0.84-4.442 1.64-6.682 2.4-16.593 5.578-33.748 9.314-51.156 11.14l-1.66 0.18c-66.422 6.82-77.080 12.28-217.139 12.28-140.055 0-162.715-5.46-229.073-12.38l-1.66-0.18c-18.276-1.919-36.268-5.946-53.619-12v0.9c-43.262-14.71-81.4-41.514-109.893-77.237s-46.145-78.867-50.864-124.317c-8.32-79.998-12.56-157.157-12.56-280.895 0-123.736 4.24-200.896 12.56-280.894 5.681-54.591 29.964-105.564 68.777-144.372s89.789-63.086 144.38-68.761l1.66-0.183c66.419-6.921 77.058-12.378 217.115-12.378 46.399 0 79.998 0.597 106.379 1.66-26.862 26.188-48.204 57.497-62.762 92.077-14.558 34.576-22.037 71.722-21.999 109.237zM263.154 693.705h436.613c12.634 0 24.751-5.019 33.684-13.953s13.952-21.052 13.952-33.686c0-12.635-5.018-24.752-13.952-33.686s-21.052-13.953-33.684-13.953h-436.513c-12.635 0-24.752 5.019-33.686 13.953s-13.953 21.052-13.953 33.686c0 12.635 5.019 24.752 13.953 33.686s21.052 13.953 33.686 13.953h-0.1zM263.154 394.571c-12.468 0.256-24.34 5.389-33.067 14.298s-13.616 20.881-13.616 33.352c0 12.471 4.888 24.444 13.616 33.352s20.599 14.042 33.067 14.298h249.016c6.34 0.128 12.642-1.007 18.534-3.345 5.897-2.334 11.264-5.824 15.795-10.261s8.128-9.732 10.586-15.582c2.453-5.845 3.721-12.122 3.721-18.462s-1.267-12.617-3.721-18.466c-2.458-5.845-6.054-11.14-10.586-15.578s-9.899-7.927-15.795-10.266c-5.892-2.334-12.194-3.469-18.534-3.341h-249.016zM778.699 364.513c-42.376 0-83.8-12.565-119.034-36.108s-62.693-57.006-78.91-96.156c-16.218-39.15-20.463-82.229-12.194-123.791 8.269-41.565 28.671-79.738 58.636-109.703s68.142-50.371 109.703-58.64c41.565-8.265 84.644-4.023 123.795 12.194s72.609 43.677 96.152 78.91c23.543 35.233 36.112 76.657 36.112 119.034 0 56.827-22.575 111.324-62.757 151.502-40.178 40.182-94.675 62.757-151.502 62.757zM863.617 118.899h-89.176c-6.763 0-13.248 2.684-18.031 7.467s-7.471 11.268-7.471 18.031v136.995c0 6.767 2.688 13.252 7.471 18.031 4.783 4.783 11.268 7.471 18.031 7.471s13.248-2.688 18.031-7.471c4.783-4.779 7.467-11.264 7.467-18.031v-111.495h63.679c6.767 0 13.252-2.688 18.035-7.471 4.779-4.783 7.467-11.268 7.467-18.031s-2.688-13.248-7.467-18.031c-4.783-4.783-11.268-7.467-18.035-7.467z" />
<glyph unicode="&#xe90d;" glyph-name="homepage" d="M1024 619.29v-566.387c-0.031-30.164-12.025-59.089-33.359-80.418-21.33-21.33-50.249-33.33-80.418-33.359h-189.63c-20.116 0-39.412 7.995-53.638 22.22s-22.214 33.516-22.214 53.632v208.593c0 10.057-3.995 19.706-11.11 26.821-7.11 7.11-16.759 11.105-26.816 11.105h-189.63c-10.057 0-19.706-3.995-26.816-11.105-7.115-7.115-11.11-16.763-11.11-26.821v-208.593c0-20.116-7.989-39.407-22.216-53.632-14.225-14.225-33.518-22.22-53.636-22.22h-189.63c-30.167 0.031-59.089 12.030-80.42 33.359s-33.327 50.254-33.358 80.418v566.387c0.028 13.099 3.432 25.969 9.882 37.368s15.73 20.945 26.944 27.713l436.146 261.689c11.793 7.077 25.284 10.815 39.039 10.815 13.749 0 27.246-3.738 39.033-10.815l436.148-261.689c11.211-6.771 20.485-16.318 26.932-27.717s9.85-24.268 9.876-37.364z" />
<glyph unicode="&#xe90e;" glyph-name="giftbox" d="M957.218 760.539h-74.539c9.83 15.56 16.32 33.026 18.172 51.498 5.909 59.034-25.182 111.954-78.11 135.416-48.653 21.566-103.326 12.75-142.699-22.958l-94.118-85.3c-18.33 20.048-44.681 32.648-73.924 32.648-29.295 0-55.689-12.64-74.022-32.75l-94.24 85.412c-39.434 35.708-94.086 44.49-142.716 22.936-52.916-23.464-84.012-76.402-78.084-135.434 1.854-18.458 8.338-35.916 18.168-51.468h-74.324c-36.884 0-66.782-29.9-66.782-66.782v-100.174c0-18.44 14.95-33.392 33.392-33.392h957.217c18.441 0 33.391 14.95 33.391 33.392v100.174c0 36.882-29.897 66.782-66.782 66.782zM411.827 771.669v-11.13h-157.087c-41.504 0-74.168 38.692-63.802 81.904 4.566 19.030 18.302 35.252 36.068 43.464 24.396 11.276 51.42 7.656 71.91-10.89l112.937-102.364c-0.004-0.33-0.026-0.654-0.026-0.984zM834.59 820.903c-2.492-34.706-33.839-60.368-68.634-60.368h-153.783v11.13c0 0.394-0.021 0.784-0.026 1.178 25.583 23.192 81.084 73.496 111.185 100.782 17.109 15.506 41.050 22.744 63.177 16.144 31.753-9.472 50.402-36.476 48.081-68.866zM66.75 493.428v-489.741c0-36.881 29.898-66.782 66.782-66.782h311.652v556.523h-378.434zM578.752 493.428v-556.523h311.65c36.885 0 66.782 29.901 66.782 66.782v489.741h-378.432z" />
<glyph unicode="&#xe90f;" glyph-name="loading" d="M512 960c25.707 0 46.545-20.839 46.545-46.545v-186.182c0-25.706-20.838-46.545-46.545-46.545s-46.545 20.839-46.545 46.545v186.182c0 25.706 20.838 46.545 46.545 46.545zM149.996 810.004c18.177 18.177 47.648 18.177 65.825 0l131.724-131.724c18.177-18.177 18.177-47.648 0-65.825s-47.648-18.177-65.825 0l-131.724 131.724c-18.177 18.177-18.177 47.648 0 65.825zM873.998 810.004c18.181-18.177 18.181-47.648 0-65.825l-131.724-131.724c-18.176-18.177-47.644-18.177-65.825 0-18.176 18.177-18.176 47.648 0 65.825l131.724 131.724c18.181 18.177 47.649 18.177 65.825 0zM0 448c0 25.707 20.839 46.545 46.545 46.545h186.182c25.706 0 46.545-20.838 46.545-46.545s-20.839-46.545-46.545-46.545h-186.182c-25.706 0-46.545 20.838-46.545 46.545zM744.727 448c0 25.707 20.838 46.545 46.545 46.545h186.182c25.707 0 46.545-20.838 46.545-46.545s-20.838-46.545-46.545-46.545h-186.182c-25.707 0-46.545 20.838-46.545 46.545zM347.545 283.55c18.177-18.181 18.177-47.649 0-65.825l-131.724-131.724c-18.177-18.181-47.648-18.181-65.825 0-18.177 18.176-18.177 47.644 0 65.825l131.724 131.724c18.177 18.176 47.648 18.176 65.825 0zM676.45 283.55c18.181 18.176 47.649 18.176 65.825 0l131.724-131.724c18.181-18.181 18.181-47.649 0-65.825-18.176-18.181-47.644-18.181-65.825 0l-131.724 131.724c-18.176 18.176-18.176 47.644 0 65.825zM512 215.273c25.707 0 46.545-20.838 46.545-46.545v-186.182c0-25.707-20.838-46.545-46.545-46.545s-46.545 20.838-46.545 46.545v186.182c0 25.707 20.838 46.545 46.545 46.545z" />
<glyph unicode="&#xe910;" glyph-name="mail" d="M98.052 748.036l413.948-289.764 413.947 289.764c-7.698 15.221-23.524 25.784-41.584 25.784h-744.727c-18.058 0-33.887-10.562-41.585-25.784zM930.909 637.876l-392.215-274.55c-16.031-11.222-37.357-11.222-53.388 0l-392.215 274.55v-469.147c0-25.493 21.052-46.546 46.546-46.546h744.727c25.493 0 46.546 21.053 46.546 46.546v469.147zM0 727.273c0 76.906 62.73 139.637 139.637 139.637h744.727c76.907 0 139.637-62.73 139.637-139.637v-558.546c0-76.907-62.729-139.637-139.637-139.637h-744.727c-76.906 0-139.637 62.729-139.637 139.637v558.546z" />
<glyph unicode="&#xe911;" glyph-name="logout" d="M360.336-43.515h-24.96c-3.891 1.229-7.68 2.38-11.699 3.662-82.866 27.595-165.861 54.808-248.523 83.017-28.647 9.781-46.080 31.003-52.889 60.673-0.48 1.483-1.071 2.929-1.766 4.325v762.234c0.794 2.33 1.715 4.608 2.381 6.989 3.108 12.393 9.072 23.888 17.416 33.564s18.835 17.268 30.635 22.167c6.016 2.637 12.442 4.301 18.688 6.4h478.076c2.429-0.666 4.837-1.51 7.295-1.946 53.325-9.395 97.947-56.78 99.839-109.362 1.716-45.696 0.897-91.493 0.434-137.24-0.18-16.998-9.982-28.851-25.444-35.2-6.107-2.507-12.73-3.477-19.3-2.823-6.566 0.653-12.87 2.909-18.362 6.57-5.489 3.66-9.998 8.613-13.128 14.424-3.125 5.81-4.78 12.3-4.813 18.899-0.59 39.347-0.156 78.719-0.205 118.092 0 30.208-16.101 46.464-46.080 46.49-56.95 0-113.913 0-170.879 0-2.765 0-5.504-0.256-8.602-0.41 0.691-0.973 0.896-1.664 1.331-1.843 44.339-18.663 59.98-42.010 59.98-89.753v-603.977h12.109c34.226 0 68.505 1.102 102.706-0.307 34.202-1.405 50.225 21.172 49.639 49.283-1.077 50.201-0.332 100.453-0.229 150.703-0.197 5.419 0.311 10.842 1.507 16.13 2.535 9.179 8.217 17.179 16.048 22.598 7.836 5.419 17.322 7.913 26.808 7.045 21.377-2.56 36.811-18.301 36.966-39.653 0.381-55.037 0.586-110.079 0-165.116-0.668-69.733-54.529-122.498-124.517-122.727-36.815-0.127-73.6 0-110.411 0h-10.908c0-15.847 0.41-30.208 0-44.544-0.87-25.6-11.546-46.821-32.41-61.283-10.803-7.631-24.346-11.522-36.736-17.076zM1003.501 521.006c-7.451-10.24-13.799-21.348-22.553-30.233-49.844-50.586-100.302-100.58-150.449-150.887-10.854-10.854-23.376-16.794-38.863-14-20.48 3.658-33.739 20.12-33.841 41.648-0.18 36.483 0 72.961 0 109.415v11.903h-11.624c-49.586 0-99.171 0-148.762 0-22.86 0-39.424 12.8-43.52 32.948-5.12 26.137 13.75 48.947 41.32 49.049 50.225 0.179 100.453 0 150.679 0h11.854v10.598c0 36.147 0.156 72.319 0 108.466 0 19.174 7.68 33.51 25.215 41.472 16.052 7.245 32.924 3.072 47.206-11.187 53.165-53.042 106.249-106.213 159.259-159.511 6.042-6.093 9.445-14.822 14.078-22.323v-17.357z" />
<glyph unicode="&#xe912;" glyph-name="minus" d="M481.881 960h60.113c2.53-0.735 5.107-1.287 7.714-1.653 80.158-5.634 154.974-28.598 223.36-70.443 132.753-81.236 214.263-198.432 242.965-351.689 3.584-19.18 5.363-38.713 7.966-58.071v-60.1c-0.623-3.533-1.327-7.061-1.852-10.62-3.183-22.037-5.009-44.373-9.745-66.061-26.726-122.931-89.873-223.676-190.016-299.524-124.591-94.362-264.887-125.662-417.882-93.76-122.436 25.545-222.004 89.702-298.075 188.668-82.434 107.055-116.65 228.681-103.8 362.483 10.445 108.53 52.602 204.34 124.916 286.153 79.278 89.775 178.069 145.619 296.172 166.654 19.214 3.431 38.751 5.334 58.164 7.963zM511.713 880.492c-238.713-0.226-432.186-193.675-432.286-432.274s193.298-432 432.133-432.422c238.839-0.427 433.34 194.274 432.785 432.772-0.55 238.5-194.223 432.15-432.631 431.924zM511.828 412.13c-65.651 0-131.302-0.175-196.953 0-28.505 0.128-47.592 25.643-38.8 51.738 2.055 6.921 6.061 13.103 11.538 17.805s12.194 7.727 19.346 8.717c4.271 0.717 8.595 1.058 12.925 1.024 127.965 0 255.927 0 383.892 0 22.916 0 38.148-9.69 43.883-27.546 1.997-5.956 2.539-12.305 1.57-18.509-0.964-6.208-3.409-12.092-7.121-17.161-3.716-5.065-8.589-9.169-14.221-11.959-5.628-2.79-11.844-4.19-18.125-4.083-46.993-0.401-93.956-0.124-140.949-0.149l-56.986 0.124z" />
<glyph unicode="&#xe913;" glyph-name="pass-lock" d="M804.573 618.667h-48.762v97.524c0 134.583-109.227 243.81-243.81 243.81s-243.81-109.227-243.81-243.81v-97.524h-48.762c-53.638 0-97.524-43.886-97.524-97.524v-487.619c0-53.638 43.886-97.524 97.524-97.524h585.142c53.638 0 97.524 43.886 97.524 97.524v487.619c0 53.638-43.886 97.524-97.524 97.524zM512.001 179.81c-53.638 0-97.524 43.886-97.524 97.524s43.886 97.524 97.524 97.524c53.638 0 97.524-43.886 97.524-97.524s-43.886-97.524-97.524-97.524zM663.163 618.667h-302.324v97.524c0 83.383 67.779 151.162 151.162 151.162s151.162-67.779 151.162-151.162v-97.524z" />
<glyph unicode="&#xe914;" glyph-name="phone" d="M279.925 959.853c12.763-5.332 26.793-8.665 38.057-16.263 21.994-14.762 33.058-36.924 33.957-63.584 1.499-45.689 5.066-91.11 15.962-135.631 4.399-18.095 9.997-35.924 14.496-53.953 7.098-27.793 0.466-52.253-17.096-74.814-28.792-37.090-56.886-74.747-84.945-112.404-0.779-1.458-1.215-3.077-1.272-4.727-0.057-1.654 0.263-3.295 0.939-4.804 57.819-110.373 138.998-198.583 247.704-260.635 9.997-5.628 19.459-11.629 29.593-16.659 1.65-0.693 3.436-1.005 5.222-0.91 1.791 0.090 3.534 0.585 5.108 1.444 37.657 28.058 75.344 56.116 112.404 84.944 10.087 8.27 21.977 14.057 34.713 16.894 12.732 2.838 25.955 2.641 38.602-0.569 26.891-6.163 53.321-15.326 80.413-19.561 34.756-5.428 69.981-8.262 105.206-10.36 41.055-2.466 70.848-23.596 81.477-61.352 2.243-8.356 3.364-16.976 3.334-25.627 0.265-59.651 0.265-119.306 0-178.957 0-51.287-36.123-86.644-87.179-86.175-189.183 2.064-363.238 54.719-519.865 160.557-151.928 102.441-264.798 237.97-338.512 405.828-36.13 81.695-59.852 168.328-70.382 257.034-3.066 26.060-5.265 52.221-7.864 78.313v49.987c5.698 13.164 9.997 27.326 17.495 39.257 12.43 19.329 32.692 27.793 54.486 32.725h207.946z" />
<glyph unicode="&#xe915;" glyph-name="user" d="M505.555 466.755c67.764 0 126.442 24.306 174.384 72.256 47.943 47.943 72.249 106.605 72.249 174.375 0 67.747-24.306 126.416-72.257 174.375-47.951 47.935-106.62 72.239-174.376 72.239-67.769 0-126.43-24.304-174.373-72.247s-72.254-106.613-72.254-174.367c0-67.77 24.311-126.44 72.262-174.383 47.951-47.934 106.622-72.248 174.365-72.248zM937.074 172.592c-1.382 19.95-4.181 41.717-8.299 64.702-4.156 23.154-9.506 45.045-15.914 65.052-6.618 20.68-15.615 41.099-26.738 60.67-11.55 20.313-25.108 37.998-40.327 52.551-15.914 15.227-35.4 27.468-57.931 36.398-22.45 8.883-47.332 13.384-73.947 13.384-10.453 0-20.564-4.292-40.083-17.002-12.015-7.834-26.073-16.895-41.756-26.917-13.413-8.55-31.585-16.554-54.031-23.807-21.896-7.083-44.128-10.679-66.075-10.679-21.942 0-44.171 3.597-66.088 10.679-22.425 7.245-40.594 15.252-53.992 23.798-15.538 9.929-29.601 18.99-41.795 26.934-19.499 12.71-29.616 16.997-40.068 16.997-26.624 0-51.498-4.506-73.942-13.396-22.514-8.913-42.005-21.153-57.935-36.398-15.21-14.561-28.78-32.238-40.31-52.542-11.117-19.57-20.116-39.985-26.741-60.679-6.398-20.005-11.75-41.888-15.905-65.043-4.117-22.954-6.914-44.725-8.297-64.728-1.359-19.592-2.047-39.925-2.047-60.465 0-53.451 16.991-96.721 50.498-128.635 33.093-31.491 76.879-47.465 130.127-47.465h493.042c53.25 0 97.020 15.965 130.12 47.465 33.514 31.888 50.507 75.171 50.507 128.644-0.009 20.633-0.704 40.984-2.069 60.482z" />
<glyph unicode="&#xe916;" glyph-name="policy" d="M849.659-63.999h-675.392c-0.532 0.474-1.154 0.857-1.837 1.148-73.512 15.121-108.43 53.785-108.43 119.573v574.612c0 72.293 0 144.586 0 216.88 0 38.24 17.367 69.84 53.94 90.986 16.724 9.706 37.43 14.053 56.328 20.8h487.019v-224c0-24.747 12.924-36.027 41.289-36.027h257.289v-593.2c0-21.653 0.431-43.332-0.243-64.985-1.020-22.984-10.274-45.111-26.471-63.283-16.192-18.172-38.51-31.479-63.825-38.050-6.464-1.549-13.081-2.961-19.665-4.454zM247.78 430.908c0-26.001 0-52.002 0-77.973 0.362-65.771 24.774-129.732 69.697-182.614s108.023-91.934 180.153-111.497c9.442-2.372 19.469-2.372 28.916 0 142.089 37.576 245.346 154.508 249.079 283.387 1.779 60.936 0.554 121.946 0.401 182.907 0 17.786-14.152 30.186-34.428 30.88-48 1.573-82.919 20.88-103.868 58.48-8.546 15.306-21.44 21.921-40.981 21.733-54.341-0.533-108.736-0.96-163.045 0.16-24.504 0.533-39.482-7.040-50.601-26.453-19.696-34.373-53.633-51.84-97.679-53.76-24.504-1.094-37.614-12.506-37.675-34.266-0.021-30.331-0.010-60.659 0.030-90.986zM943.569 760.349h-176.819v176.819l176.819-176.819zM746.667 410.83c-2.522-35.456-0.328-71.54-8.482-106.253-22.477-95.825-97.412-161.177-218.219-196.821-5.415-1.451-11.328-1.451-16.743 0-128.265 37.999-205.904 107.951-221.073 210.62-8.407 56.806-3.144 114.74-3.655 172.177 0.387 1.587 1.296 3.076 2.642 4.33 1.347 1.258 3.090 2.244 5.071 2.872 56.742 9.937 105.904 36.325 136.708 73.373 1.439 1.357 3.244 2.471 5.298 3.268s4.309 1.26 6.619 1.359c50.662 0.329 101.351 0.329 152.060 0 2.543-0.12 5.018-0.643 7.271-1.535 2.249-0.892 4.22-2.133 5.781-3.639 32.602-37.617 77.675-62.009 135.902-72.386 8.116-1.425 8.627-4.462 8.589-9.309 0-25.98 0-52.019 0-77.973l2.231-0.081zM472.008 324.724c-15.791 12.13-30.268 23.493-45.145 34.581-19.118 14.208-43.681 15.002-60.824 2.27s-15.827-31.62 2.705-45.636c23.467-17.724 47.031-35.383 70.694-52.979 21.64-16.124 44.376-16.26 65.795-0.218 49.177 36.684 98.266 73.447 147.273 110.276 19.448 14.622 20.983 33.596 4.057 46.545s-42.364 11.882-61.922-2.74c-22.37-16.61-44.655-33.293-66.854-50.048-17.911-13.551-35.896-27.131-55.778-42.052z" />
<glyph unicode="&#xe917;" glyph-name="product" d="M195.493 941.381c8.79 11.72 22.586 18.618 37.236 18.618h558.545c14.653 0 28.444-6.898 37.236-18.618l139.636-186.182c6.042-8.057 9.309-17.856 9.309-27.927v-651.636c0-37.036-14.713-72.55-40.899-98.737s-61.701-40.899-98.737-40.899h-651.636c-37.034 0-72.551 14.713-98.738 40.899s-40.899 61.701-40.899 98.737v651.636c0 10.071 3.266 19.87 9.309 27.927l139.636 186.182zM256.003 866.908l-69.818-93.091h651.636l-69.818 93.091h-512zM884.366 680.726h-744.727v-605.091c0-12.344 4.904-24.185 13.633-32.912s20.568-13.633 32.913-13.633h651.636c12.344 0 24.185 4.906 32.912 13.633s13.633 20.568 13.633 32.912v605.091zM325.821 587.635c25.706 0 46.545-20.839 46.545-46.545 0-37.034 14.712-72.55 40.899-98.737s61.704-40.899 98.738-40.899c37.032 0 72.55 14.713 98.737 40.899s40.899 61.703 40.899 98.737c0 25.706 20.838 46.545 46.545 46.545s46.545-20.839 46.545-46.545c0-61.724-24.52-120.92-68.166-164.561-43.641-43.646-102.838-68.166-164.561-68.166s-120.918 24.52-164.563 68.166c-43.645 43.641-68.164 102.838-68.164 164.561 0 25.706 20.839 46.545 46.545 46.545z" />
<glyph unicode="&#xe918;" glyph-name="remove" d="M512 866.909c-231.357 0-418.909-187.552-418.909-418.909 0-231.359 187.552-418.909 418.909-418.909 231.359 0 418.909 187.55 418.909 418.909 0 231.357-187.55 418.909-418.909 418.909zM0 448c0 282.77 229.23 512 512 512 282.768 0 512-229.23 512-512 0-282.768-229.232-512-512-512-282.77 0-512 229.232-512 512zM339.451 620.549c18.177 18.177 47.648 18.177 65.826 0l106.724-106.724 106.724 106.724c18.176 18.177 47.649 18.177 65.825 0s18.176-47.648 0-65.826l-106.724-106.724 106.724-106.724c18.176-18.176 18.176-47.649 0-65.825s-47.649-18.176-65.825 0l-106.724 106.724-106.724-106.724c-18.177-18.176-47.648-18.176-65.826 0s-18.177 47.649 0 65.825l106.724 106.724-106.724 106.724c-18.177 18.177-18.177 47.648 0 65.826z" />
<glyph unicode="&#xe919;" glyph-name="search" d="M460.791 857.602c197.935 0 358.393-160.458 358.393-358.393 0-96.628-38.24-184.327-100.411-248.781-1.7-1.316-3.333-2.755-4.89-4.311s-2.995-3.19-4.311-4.89c-64.455-62.171-152.153-100.411-248.781-100.411-197.935 0-358.393 160.458-358.393 358.393s160.458 358.393 358.393 358.393zM820.817 211.588c63.057 78.832 100.765 178.823 100.765 287.621 0 254.488-206.301 460.791-460.791 460.791-254.488 0-460.791-206.303-460.791-460.791 0-254.49 206.303-460.791 460.791-460.791 108.798 0 208.79 37.708 287.621 100.765l188.187-188.187c19.994-19.994 52.412-19.994 72.406 0s19.994 52.412 0 72.406l-188.187 188.187z" />
<glyph unicode="&#xe91a;" glyph-name="setting" d="M512 874.667c-11.315 0-22.17-4.495-30.17-12.497s-12.497-18.854-12.497-30.17v-7.424c-0.090-22.051-6.622-43.594-18.799-61.978-12.173-18.385-29.459-32.808-49.727-41.495-3.607-1.546-7.403-2.583-11.278-3.090-18.416-6.449-38.241-8.039-57.541-4.539-22.229 4.031-42.741 14.628-58.892 30.426l-0.336 0.329-2.558 2.562c-3.962 3.967-8.685 7.131-13.865 9.278s-10.732 3.252-16.339 3.252c-5.607 0-11.159-1.105-16.339-3.252s-9.885-5.295-13.848-9.261l-0.034-0.034c-3.967-3.962-7.114-8.668-9.261-13.848s-3.252-10.732-3.252-16.339c0-5.607 1.105-11.159 3.252-16.339s5.295-9.885 9.261-13.848l2.91-2.909c15.797-16.15 26.393-36.664 30.423-58.893 3.951-21.787 1.415-44.244-7.275-64.588-7.917-20.759-21.78-38.738-39.868-51.674-18.454-13.197-40.451-20.54-63.133-21.069l-0.998-0.013h-3.84c-11.316 0-22.168-4.497-30.17-12.497s-12.497-18.854-12.497-30.17c0-11.315 4.495-22.17 12.497-30.17s18.854-12.497 30.17-12.497h7.424c22.051-0.090 43.594-6.622 61.978-18.799 18.321-12.13 32.708-29.338 41.404-49.515 9.048-20.617 11.738-43.465 7.721-65.617-4.031-22.229-14.628-42.739-30.426-58.893l-0.329-0.337-2.562-2.556c-3.967-3.964-7.13-8.687-9.278-13.867s-3.252-10.731-3.252-16.337c0-5.606 1.105-11.157 3.252-16.337s5.295-9.886 9.261-13.85l0.034-0.034c3.962-3.968 8.668-7.113 13.848-9.259 5.18-2.15 10.732-3.255 16.339-3.255s11.159 1.105 16.339 3.255c5.18 2.146 9.885 5.291 13.848 9.259l2.909 2.91c16.15 15.799 36.664 26.394 58.893 30.426 21.787 3.947 44.244 1.412 64.588-7.275 20.759-7.919 38.738-21.781 51.675-39.872 13.197-18.453 20.54-40.448 21.069-63.13l0.013-0.998v-3.84c0-11.315 4.497-22.17 12.497-30.17s18.854-12.497 30.17-12.497c11.315 0 22.17 4.497 30.17 12.497s12.497 18.854 12.497 30.17v7.424c0.090 22.050 6.622 43.593 18.799 61.978 12.134 18.321 29.342 32.713 49.519 41.408 20.612 9.045 43.46 11.733 65.613 7.718 22.229-4.032 42.739-14.63 58.893-30.426l2.893-2.893c3.964-3.968 8.687-7.13 13.867-9.276 5.18-2.15 10.731-3.255 16.337-3.255s11.157 1.105 16.337 3.255c5.18 2.146 9.886 5.291 13.85 9.259l0.034 0.034c3.968 3.964 7.113 8.67 9.259 13.85 2.15 5.18 3.255 10.731 3.255 16.337s-1.105 11.157-3.255 16.337c-2.146 5.18-5.291 9.886-9.259 13.85l-2.91 2.91c-15.799 16.149-26.394 36.663-30.426 58.893-4.015 22.153-1.327 45.001 7.718 65.613 8.695 20.177 23.087 37.385 41.408 49.519 18.385 12.177 39.927 18.709 61.978 18.799h4.011c11.315 0 22.17 4.497 30.17 12.497s12.497 18.854 12.497 30.17c0 11.315-4.497 22.17-12.497 30.17s-18.854 12.497-30.17 12.497h-7.424c-22.050 0.090-43.593 6.622-61.978 18.799-18.385 12.173-32.806 29.459-41.493 49.727-1.549 3.607-2.586 7.403-3.093 11.278-6.447 18.417-8.038 38.242-4.54 57.541 4.032 22.229 14.63 42.741 30.426 58.892l0.329 0.336 2.564 2.558c3.968 3.963 7.13 8.685 9.276 13.865 2.15 5.18 3.255 10.732 3.255 16.339s-1.105 11.159-3.255 16.339c-2.146 5.18-5.291 9.885-9.259 13.848l-0.034 0.034c-3.964 3.967-8.67 7.114-13.85 9.261s-10.731 3.252-16.337 3.252c-5.606 0-11.157-1.105-16.337-3.252s-9.886-5.295-13.85-9.261l-2.91-2.91c-16.149-15.797-36.663-26.393-58.893-30.423-22.153-4.017-45.001-1.328-65.617 7.721-20.177 8.696-37.385 23.083-49.515 41.404-12.177 18.385-18.709 39.928-18.799 61.978v4.010c0 11.316-4.497 22.168-12.497 30.17s-18.854 12.497-30.17 12.497zM421.49 922.51c24.005 24.005 56.564 37.49 90.51 37.49s66.505-13.486 90.509-37.49c24.004-24.005 37.491-56.562 37.491-90.51v-3.733c0.034-5.386 1.634-10.647 4.612-15.139 2.982-4.509 7.223-8.047 12.194-10.178l0.422-0.18c5.069-2.237 10.692-2.907 16.145-1.919 5.393 0.978 10.372 3.532 14.315 7.336l2.338 2.339c11.887 11.901 26.005 21.342 41.545 27.784s32.196 9.757 49.015 9.757c16.819 0 33.476-3.315 49.015-9.757s29.658-15.883 41.545-27.784c11.887-11.881 21.316-25.986 27.75-41.51 6.443-15.539 9.758-32.195 9.758-49.016s-3.315-33.478-9.758-49.016c-6.438-15.532-15.872-29.643-27.767-41.527-0.004-0.006 0.004 0.006 0 0l-2.355-2.356c-3.806-3.941-6.357-8.922-7.334-14.315-0.99-5.452-0.324-11.076 1.916-16.146 1.203-2.732 2.116-5.576 2.726-8.483 2.018-2.975 4.608-5.543 7.633-7.547 4.493-2.975 9.754-4.576 15.138-4.61h7.147c33.95 0 66.505-13.486 90.509-37.49s37.491-56.56 37.491-90.51c0-33.95-13.487-66.505-37.491-90.509s-56.559-37.491-90.509-37.491h-3.733c-5.385-0.034-10.645-1.634-15.138-4.612-4.51-2.982-8.047-7.223-10.18-12.194l-0.179-0.422c-2.236-5.069-2.906-10.692-1.916-16.145 0.977-5.393 3.529-10.372 7.334-14.315l2.338-2.338c0.004-0.004-0.004 0.004 0 0 11.895-11.883 21.346-26.014 27.785-41.545 6.443-15.539 9.758-32.196 9.758-49.015s-3.315-33.476-9.758-49.015c-6.443-15.539-15.885-29.658-27.785-41.545l-30.153 30.187 30.187-30.153c-11.887-11.9-26.005-21.342-41.545-27.785s-32.196-9.758-49.015-9.758c-16.819 0-33.476 3.315-49.015 9.758-15.531 6.438-29.645 15.872-41.527 27.767-0.004 0.004 0.004-0.004 0 0l-2.355 2.355c-3.942 3.806-8.922 6.357-14.315 7.334-5.453 0.99-11.076 0.324-16.145-1.916l-0.418-0.183c-4.975-2.129-9.216-5.666-12.198-10.176-2.978-4.493-4.578-9.754-4.612-15.138v-7.147c0-33.95-13.487-66.505-37.491-90.509s-56.559-37.491-90.509-37.491c-33.95 0-66.505 13.487-90.51 37.491s-37.49 56.559-37.49 90.509v3.226c-0.202 5.427-1.994 10.679-5.157 15.104-3.238 4.523-7.761 7.97-12.984 9.894-0.844 0.307-1.677 0.644-2.499 1.007-5.070 2.24-10.694 2.906-16.146 1.916-5.393-0.977-10.374-3.529-14.316-7.334l-2.338-2.338c-0.006-0.004 0.006 0.004 0 0-11.884-11.895-26.012-21.346-41.544-27.785-15.539-6.443-32.195-9.758-49.016-9.758s-33.478 3.315-49.016 9.758c-15.524 6.434-29.629 15.863-41.51 27.75-11.901 11.887-21.342 26.005-27.784 41.545s-9.757 32.196-9.757 49.015c0 16.819 3.315 33.476 9.757 49.015s15.883 29.658 27.784 41.545l2.339 2.338c3.805 3.942 6.358 8.922 7.336 14.315 0.989 5.453 0.321 11.076-1.916 16.145l-0.185 0.418c-2.131 4.975-5.666 9.216-10.176 12.198-4.492 2.978-9.753 4.578-15.139 4.612h-7.147c-33.948 0-66.505 13.487-90.51 37.491s-37.49 56.563-37.49 90.509c0 33.946 13.486 66.505 37.49 90.51s56.562 37.49 90.51 37.49h3.227c5.427 0.202 10.678 1.994 15.1 5.157 4.527 3.237 7.974 7.761 9.895 12.984 0.311 0.844 0.647 1.677 1.010 2.499 2.237 5.070 2.905 10.694 1.916 16.146-0.978 5.393-3.532 10.374-7.337 14.315l-2.339 2.339c-11.901 11.888-21.342 26.004-27.784 41.544s-9.757 32.195-9.757 49.016c0 16.821 3.315 33.478 9.757 49.016 6.438 15.532 15.874 29.643 27.767 41.527 11.884 11.893 25.996 21.328 41.527 27.767 15.539 6.442 32.195 9.757 49.016 9.757s33.478-3.315 49.016-9.757c15.539-6.441 29.656-15.883 41.544-27.784l2.339-2.339c3.941-3.805 8.922-6.359 14.315-7.337 5.452-0.989 11.076-0.321 16.146 1.916 2.732 1.206 5.576 2.118 8.483 2.727 2.975 2.019 5.543 4.608 7.547 7.633 2.975 4.492 4.576 9.753 4.61 15.139v7.147c0 33.948 13.486 66.505 37.49 90.51zM512 533.333c-47.13 0-85.333-38.204-85.333-85.333s38.204-85.333 85.333-85.333c47.13 0 85.333 38.204 85.333 85.333s-38.204 85.333-85.333 85.333zM341.333 448c0 94.257 76.41 170.667 170.667 170.667 94.255 0 170.667-76.41 170.667-170.667 0-94.255-76.412-170.667-170.667-170.667-94.257 0-170.667 76.412-170.667 170.667z" />
<glyph unicode="&#xe91b;" glyph-name="sort" d="M938.67 874.646h-853.335c-22.632 0-44.336-8.991-60.34-24.994s-24.994-37.708-24.994-60.34c0-22.632 8.99-44.337 24.994-60.34s37.708-24.993 60.34-24.993h853.335c22.63 0 44.333 8.99 60.339 24.993 16 16.003 24.992 37.708 24.992 60.34s-8.992 44.337-24.992 60.34c-16.006 16.003-37.709 24.994-60.339 24.994zM767.956 533.271h-511.997c-22.632 0-44.337-8.99-60.34-24.993s-24.993-37.708-24.993-60.34c0-22.632 8.99-44.337 24.993-60.34s37.708-24.994 60.34-24.994h511.997c22.637 0 44.339 8.991 60.346 24.994 16 16.003 24.992 37.708 24.992 60.34s-8.992 44.337-24.992 60.34c-16.006 16.003-37.709 24.993-60.346 24.993zM597.376 192.021h-170.666c-22.632 0-44.337-8.992-60.34-24.992-16.003-16.006-24.994-37.709-24.994-60.339 0-22.637 8.991-44.339 24.994-60.339 16.003-16.006 37.708-24.998 60.34-24.998h170.666c22.632 0 44.334 8.992 60.34 24.998 16 16 24.992 37.702 24.992 60.339 0 22.63-8.992 44.333-24.992 60.339-16.006 16-37.708 24.992-60.34 24.992z" />
<glyph unicode="&#xe91c;" glyph-name="success" d="M682.495 830.645c-82.516 36.765-174.704 45.875-262.816 25.966s-167.431-67.766-226.123-136.436-93.614-154.472-99.558-244.612c-5.943-90.14 17.409-179.782 66.577-255.568 49.167-75.781 121.513-133.636 206.25-164.943s177.324-34.383 263.949-8.769c86.631 25.614 162.658 78.541 216.744 150.896 54.091 72.351 83.339 160.246 83.391 250.582v42.794c0 25.707 20.838 46.546 46.546 46.546s46.546-20.838 46.546-46.546v-42.822c-0.065-110.406-35.812-217.865-101.92-306.292-66.108-88.432-159.031-153.126-264.909-184.427-105.877-31.306-219.038-27.546-322.605 10.715-103.567 38.265-191.99 108.981-252.084 201.602s-88.636 202.189-81.372 312.357c7.265 110.17 49.948 215.039 121.683 298.97s168.679 142.422 276.373 166.754c107.696 24.332 220.369 13.2 321.219-31.737 23.482-10.463 34.034-37.979 23.571-61.46-10.459-23.481-37.976-34.034-61.459-23.572zM1010.351 853.020c18.186-18.168 18.199-47.639 0.032-65.825l-465.454-465.922c-8.727-8.732-20.568-13.642-32.917-13.647-12.353-0.004-24.194 4.901-32.927 13.633l-139.637 139.636c-18.177 18.176-18.177 47.649 0 65.825s47.648 18.177 65.826 0l106.705-106.705 432.542 432.973c18.171 18.187 47.639 18.201 65.829 0.033z" />
<glyph unicode="&#xe91d;" glyph-name="term" d="M128 960h469.333v-298.667c0-23.564 19.102-42.667 42.667-42.667h298.667v-639.999c0-23.565-19.102-42.667-42.667-42.667h-767.999c-23.564 0-42.667 19.102-42.667 42.667v938.666c0 23.564 19.103 42.667 42.667 42.667zM810.666 234.667h-597.332v-85.333h597.332v85.333zM213.333 448v-85.333h597.332v85.333h-597.332zM213.333 576h256v85.333h-256v-85.333zM913.664 704.003h-230.997v230.997l230.997-230.997z" />
<glyph unicode="&#xe91e;" glyph-name="trash" d="M418.909 866.909h186.182c12.344 0 24.185-4.904 32.912-13.633s13.633-20.568 13.633-32.913v-46.545h-279.273v46.545c0 12.345 4.904 24.184 13.633 32.913s20.568 13.633 32.913 13.633zM744.727 773.818h186.182c25.707 0 46.545-20.839 46.545-46.545s-20.838-46.545-46.545-46.545h-46.545v-605.092c0-37.036-14.713-72.55-40.899-98.737s-61.701-40.899-98.737-40.899h-465.455c-37.034 0-72.551 14.713-98.738 40.899s-40.899 61.701-40.899 98.737v605.092h-46.545c-25.706 0-46.545 20.839-46.545 46.545s20.839 46.545 46.545 46.545h186.182v46.545c0 37.034 14.712 72.551 40.899 98.738s61.704 40.899 98.738 40.899h186.182c37.032 0 72.55-14.712 98.737-40.899s40.899-61.704 40.899-98.738v-46.545zM232.727 680.727v-605.092c0-12.344 4.904-24.185 13.633-32.912s20.568-13.633 32.913-13.633h465.455c12.344 0 24.185 4.906 32.912 13.633s13.633 20.568 13.633 32.912v605.092h-558.546zM418.909 541.091c-25.706 0-46.545-20.839-46.545-46.545v-279.273c0-25.707 20.839-46.545 46.545-46.545s46.545 20.838 46.545 46.545v279.273c0 25.707-20.839 46.545-46.545 46.545zM558.545 494.545v-279.273c0-25.707 20.838-46.545 46.545-46.545s46.545 20.838 46.545 46.545v279.273c0 25.707-20.838 46.545-46.545 46.545s-46.545-20.839-46.545-46.545z" />
<glyph unicode="&#xe91f;" glyph-name="copy" d="M139.638 866.907c-12.345 0-24.184-4.904-32.913-13.633s-13.633-20.568-13.633-32.913v-418.908c0-12.344 4.904-24.185 13.633-32.912s20.568-13.633 32.913-13.633h46.545c25.706 0 46.545-20.838 46.545-46.545s-20.839-46.545-46.545-46.545h-46.545c-37.034 0-72.551 14.713-98.738 40.899s-40.899 61.705-40.899 98.737v418.908c0 37.034 14.712 72.551 40.899 98.738s61.704 40.899 98.738 40.899h418.908c37.032 0 72.55-14.712 98.737-40.899s40.899-61.704 40.899-98.738v-46.545c0-25.706-20.838-46.545-46.545-46.545s-46.545 20.839-46.545 46.545v46.545c0 12.345-4.906 24.184-13.633 32.913s-20.568 13.633-32.912 13.633h-418.908zM465.456 541.090c-25.707 0-46.545-20.839-46.545-46.545v-418.908c0-25.707 20.839-46.545 46.545-46.545h418.908c25.707 0 46.545 20.838 46.545 46.545v418.908c0 25.707-20.838 46.545-46.545 46.545h-418.908zM325.819 494.544c0 77.119 62.518 139.636 139.636 139.636h418.908c77.121 0 139.636-62.518 139.636-139.636v-418.908c0-77.121-62.515-139.636-139.636-139.636h-418.908c-77.119 0-139.636 62.515-139.636 139.636v418.908z" />
<glyph unicode="&#xe920;" glyph-name="crown" d="M267.84 548.599c0.69 0.94 1.33 1.79 1.96 2.66 69.060 96.68 138.12 193.35 207.15 290.040 5.98 8.38 13.68 14.27 23.58 17.14 17.41 5.050 35.83-1.3 46.5-16.12 13.29-18.46 26.46-37 39.68-55.51 56.17-78.64 112.35-157.29 168.52-235.93 0.52-0.73 1.080-1.44 1.7-2.26 0.94 0.44 1.76 0.82 2.56 1.22 64.65 32.32 129.31 64.63 193.94 97 7.54 3.78 15.36 5.81 23.83 5.26 16.81-1.070 31.63-12.24 37.28-28.18 2.89-8.16 3.090-16.41 1.25-24.85-9.49-43.43-18.89-86.88-28.34-130.31-8.24-37.91-16.51-75.81-24.75-113.71-7.25-33.35-14.48-66.71-21.73-100.060-7.59-34.9-15.19-69.79-22.78-104.69-5.89-27.090-11.75-54.19-17.67-81.27-3.9-17.85-18.85-31.23-36.9-33.12-2.070-0.22-4.15-0.34-6.23-0.34-230-0.020-460 0-689.99-0.030-12.93 0-23.96 4.33-32.85 13.8-5.37 5.72-8.78 12.51-10.44 20.17-5.6 25.79-11.18 51.58-16.78 77.37-6.77 31.16-13.55 62.31-20.32 93.47-6.76 31.070-13.53 62.14-20.28 93.22-6.42 29.53-12.82 59.060-19.24 88.59-6.58 30.26-13.17 60.52-19.76 90.78-6.35 29.2-12.76 58.39-19.030 87.61-4.97 23.14 9.49 45.58 32.63 50.69 10.040 2.22 19.68 0.77 28.88-3.84 29.7-14.89 59.43-29.73 89.15-44.59 35.3-17.65 70.61-35.3 105.92-52.95 0.81-0.41 1.63-0.79 2.59-1.25l-0.030-0.010zM200.23 121.109h624.16c0.18 0.53 0.35 0.92 0.43 1.32 29.56 136.010 59.11 272.030 88.66 408.040 0.020 0.080 0 0.17 0 0.25-0.020 0.080-0.050 0.16-0.090 0.22s-0.1 0.1-0.25 0.25c-0.7-0.33-1.45-0.68-2.19-1.050-17.28-8.64-34.56-17.27-51.85-25.92-32.1-16.050-64.19-32.15-96.32-48.14-12.75-6.35-25.67-6.34-38.51-0.15-7 3.37-12.32 8.65-16.81 14.94-64.37 90.19-128.79 180.36-193.2 270.53-0.57 0.8-1.17 1.57-1.88 2.54-0.7-0.93-1.26-1.63-1.78-2.36-33.13-46.37-66.25-92.74-99.37-139.12-31.48-44.070-62.96-88.13-94.42-132.21-2.24-3.13-4.63-6.14-7.64-8.54-14.39-11.47-30.14-13.75-46.75-5.76-20.41 9.81-40.56 20.18-60.82 30.31-29.27 14.63-58.55 29.27-87.83 43.9-0.77 0.38-1.56 0.73-2.75 1.29 29.8-137.090 59.49-273.65 89.21-410.35v0.010z" />
<glyph unicode="&#xe921;" glyph-name="edit-note" d="M879.515 867.415c-13.767 0-26.968-5.469-36.703-15.203l-430.69-430.692-24.469-97.876 97.877 24.469 430.689 430.692c9.735 9.734 15.202 22.937 15.202 36.703s-5.467 26.969-15.202 36.703c-9.735 9.734-22.937 15.203-36.703 15.203zM777.347 917.677c27.098 27.096 63.848 42.319 102.167 42.319s75.069-15.223 102.167-42.319c27.098-27.096 42.319-63.847 42.319-102.167s-15.22-75.071-42.319-102.167l-439.758-439.755c-5.935-5.935-13.364-10.142-21.507-12.179l-185.159-46.29c-15.775-3.944-32.462 0.68-43.959 12.179-11.497 11.494-16.12 28.182-12.176 43.957l46.29 185.161c2.035 8.138 6.244 15.572 12.176 21.507l439.758 439.757zM40.674 821.135c26.043 26.043 61.365 40.674 98.197 40.674h324.031c25.566 0 46.29-20.725 46.29-46.29s-20.724-46.29-46.29-46.29h-324.031c-12.277 0-24.051-4.877-32.733-13.558s-13.558-20.455-13.558-32.733v-648.063c0-12.276 4.877-24.052 13.558-32.731s20.455-13.558 32.733-13.558h648.063c12.276 0 24.052 4.879 32.731 13.558s13.558 20.455 13.558 32.731v324.031c0 25.566 20.724 46.29 46.29 46.29s46.29-20.724 46.29-46.29v-324.031c0-36.833-14.632-72.153-40.675-98.195s-61.362-40.675-98.195-40.675h-648.063c-36.831 0-72.153 14.632-98.197 40.675s-40.674 61.362-40.674 98.195v648.063c0 36.831 14.631 72.153 40.674 98.197z" />
<glyph unicode="&#xe922;" glyph-name="flag" d="M97.568 423.784c0 153.516 0 307.031 0.023 460.547 0 2.651 0.16 5.348 0.674 7.943 1.074 5.417 4.046 9.783 8.183 13.405 8.148 7.131 17.257 12.822 26.788 17.862 20.228 10.697 41.713 17.999 63.872 23.439 18.971 4.651 38.205 7.771 57.633 9.84 21.897 2.331 43.862 3.36 65.872 3.154 33.599-0.32 66.512-5.6 98.889-14.422 27.211-7.417 53.633-17.131 79.861-27.416 24.354-9.554 48.661-19.234 73.129-28.491 21.371-8.080 43.222-14.72 65.575-19.554 14.811-3.2 29.748-5.463 44.856-6.674 18.937-1.509 37.862-1.040 56.798-0.046 14.171 0.743 28.285 2.091 42.319 4.194 26.822 4.023 53.073 10.194 77.815 21.657 5.771 2.674 11.348 5.806 16.822 9.051 3.337 1.977 6.377 4.491 9.405 6.937 8.023 6.468 16.88 7.92 26.182 3.68 9.223-4.206 13.874-11.817 14.194-21.988 0.023-0.571 0-1.143 0-1.714 0-193.983 0-387.978-0.034-581.961 0-2.731-0.297-5.531-0.926-8.183-1.166-4.857-4-8.777-7.737-12.080-8.125-7.166-17.234-12.845-26.765-17.897-19.188-10.183-39.553-17.28-60.547-22.651-19.211-4.914-38.696-8.217-58.398-10.411-25.976-2.891-52.033-3.977-78.135-3.188-22.697 0.686-45.107 3.874-67.29 8.743-31.131 6.823-61.198 17.028-90.843 28.548-25.279 9.828-50.433 19.942-75.746 29.679-21.679 8.331-43.759 15.485-66.375 20.914-28.479 6.834-57.324 9.988-86.626 9.303-16.674-0.389-33.302-1.2-49.873-3.063-25.794-2.903-51.153-7.794-75.678-16.537-11.143-3.966-21.897-8.754-32.113-14.765-2.206-1.291-3.086-2.697-3.086-5.36 0.080-84.283 0.069-168.567 0.069-252.839 0-23.999-0.011-47.999 0-71.998 0-5.691-1.406-10.925-4.811-15.531-6.228-8.423-17.005-11.92-26.959-8.765-10.045 3.177-16.731 12.183-17.040 22.959-0.034 1.234 0 2.48 0 3.714 0 153.321 0 306.654 0 459.976l0.023-0.011zM146.493 345.020c1.006 0.377 1.623 0.571 2.217 0.834 33.279 14.308 68.272 21.679 104.089 25.611 10.777 1.177 21.622 1.909 32.445 2.526 21.119 1.2 42.239 1.349 63.347-0.571 17.748-1.623 35.29-4.48 52.661-8.434 25.839-5.886 51.016-13.965 75.724-23.428 24.342-9.325 48.524-19.074 72.798-28.548 24.914-9.725 50.090-18.674 76.078-25.188 26.228-6.583 52.833-10.411 79.906-10.491 23.828-0.069 47.576 1.223 71.209 4.411 17.76 2.4 35.279 5.851 52.456 10.983 15.737 4.697 30.925 10.651 45.153 18.971 2.423 1.417 3.291 2.971 3.291 5.84-0.080 173.024-0.069 346.059-0.069 519.083 0 1.52 0.011 3.051 0 4.571 0 0.709-0.091 1.429-0.149 2.343-0.903-0.331-1.52-0.526-2.126-0.789-34.25-14.754-70.307-22.194-107.208-25.976-12.023-1.234-24.102-1.954-36.17-2.514-19.897-0.926-39.782-0.834-59.633 1.143-18.022 1.794-35.816 4.857-53.427 9.028-24.856 5.897-49.096 13.76-72.912 22.914-24.776 9.531-49.404 19.439-74.135 29.073-25.279 9.851-50.856 18.799-77.278 25.165-23.954 5.771-48.204 9.291-72.878 9.554-19.051 0.194-38.068-0.48-57.050-2.297-17.451-1.669-34.753-4.24-51.839-8.183-18.034-4.16-35.622-9.68-52.284-17.84-4.857-2.377-9.531-5.131-14.217-7.668v-530.122z" />
<glyph unicode="&#xe923;" glyph-name="company" d="M1003.998-1.776h-61.777v322.697c0 11.042-8.956 19.998-20.002 19.998-11.042 0-19.998-8.956-19.998-19.998v-322.697h-143.616v166.293c0 11.046-8.956 20.002-20.002 20.002h-130.415c-11.042 0-19.998-8.956-19.998-20.002v-166.293h-140.254v823.303h454.285v-324.022c0-11.042 8.956-20.002 19.998-20.002 11.046 0 20.002 8.96 20.002 20.002v344.022c0 11.044-8.956 20-20.002 20h-49.203v56.248c0 11.044-8.956 20-20.002 20h-350.827c-11.042 0-19.998-8.956-19.998-20v-56.248h-54.251c-11.044 0-20-8.956-20-20v-312.355h-156.778v62.785c0 11.044-8.956 20-20 20h-137.816c-11.044 0-20-8.956-20-20v-593.733h-53.344c-11.044 0-20-8.956-20-20.002 0-11.042 8.956-19.998 20-19.998h983.998c11.046 0 20.002 8.956 20.002 19.998 0 11.046-8.956 20.002-20.002 20.002zM522.189 897.775h310.827v-36.248h-310.827v36.248zM113.344 571.957h97.816v-42.785h-97.816v42.785zM283.718-1.767h-48.674v71.411h48.674v-71.411zM407.938-1.776h-84.218v91.422c0 11.042-8.956 19.998-20 19.998h-88.674c-11.044 0-20-8.956-20-19.998v-91.422h-81.702v490.948h294.594v-490.948zM718.605-1.767h-90.415v146.287h90.415v-146.287zM938.842 418.081c-9.924 14.874-33.724 9.519-36.395-8.175-2.718-18.027 19.315-29.935 32.951-17.98 7.497 6.571 8.875 17.865 3.443 26.155zM640.909 729.881c0 11.044-8.956 20-19.998 20h-84.779c-11.046 0-20.002-8.956-20.002-20v-84.778c0-11.044 8.956-20 20.002-20h84.779c11.042 0 19.998 8.956 19.998 20v84.778zM600.909 665.105h-44.779v44.778h44.779v-44.778zM828.343 729.881c0 11.044-8.956 20-19.998 20h-84.779c-11.046 0-20.002-8.956-20.002-20v-84.778c0-11.044 8.956-20 20.002-20h84.779c11.042 0 19.998 8.956 19.998 20v84.778zM788.343 665.105h-44.779v44.778h44.779v-44.778zM640.909 555.001c0 11.044-8.956 20-19.998 20h-84.779c-11.046 0-20.002-8.956-20.002-20v-84.777c0-11.046 8.956-20.002 20.002-20.002h84.779c11.042 0 19.998 8.956 19.998 20.002v84.777zM600.909 490.222h-44.779v44.779h44.779v-44.779zM828.343 555.001c0 11.044-8.956 20-19.998 20h-84.779c-11.046 0-20.002-8.956-20.002-20v-84.777c0-11.046 8.956-20.002 20.002-20.002h84.779c11.042 0 19.998 8.956 19.998 20.002v84.777zM788.343 490.222h-44.779v44.779h44.779v-44.779zM620.911 400.123h-84.779c-11.046 0-20.002-8.956-20.002-19.998v-84.779c0-11.046 8.956-20.002 20.002-20.002h84.779c11.042 0 19.998 8.956 19.998 20.002v84.779c0 11.042-8.951 19.998-19.998 19.998zM600.909 315.344h-44.779v44.779h44.779v-44.779zM808.346 400.123h-84.779c-11.046 0-20.002-8.956-20.002-19.998v-84.779c0-11.046 8.956-20.002 20.002-20.002h84.779c11.042 0 19.998 8.956 19.998 20.002v84.779c0 11.042-8.956 19.998-19.998 19.998zM788.343 315.344h-44.779v44.779h44.779v-44.779zM177.274 443.088c-11.044 0-20-8.956-20-20.002v-250.564c0-11.046 8.956-20.002 20-20.002s20 8.956 20 20.002v250.564c0 11.046-8.956 20.002-20 20.002zM259.184 152.52c11.044 0 20 8.956 20 20.002v250.564c0 11.046-8.956 20.002-20 20.002s-20-8.956-20-20.002v-250.564c0-11.046 8.954-20.002 20-20.002zM341.096 152.52c11.044 0 20 8.956 20 20.002v250.564c0 11.046-8.956 20.002-20 20.002s-20-8.956-20-20.002v-250.564c0-11.046 8.954-20.002 20-20.002z" />
<glyph unicode="&#xe924;" glyph-name="tag" d="M0 697.081h968.649c30.57 0 55.351-24.782 55.351-55.351v-249.081c0-30.57-24.781-55.351-55.351-55.351h-968.649v359.784zM0 697.081h55.351v-498.162l-55.351 62.27v435.892z" />
<glyph unicode="&#xe925;" glyph-name="cirle-plus" d="M512 866.909c-231.357 0-418.909-187.552-418.909-418.909 0-231.359 187.552-418.909 418.909-418.909 231.359 0 418.909 187.55 418.909 418.909 0 231.357-187.55 418.909-418.909 418.909zM0 448c0 282.77 229.23 512 512 512 282.768 0 512-229.23 512-512 0-282.768-229.232-512-512-512-282.77 0-512 229.232-512 512zM512 680.727c25.707 0 46.545-20.839 46.545-46.545v-139.636h139.636c25.707 0 46.545-20.838 46.545-46.545s-20.838-46.545-46.545-46.545h-139.636v-139.636c0-25.707-20.838-46.545-46.545-46.545s-46.545 20.838-46.545 46.545v139.636h-139.636c-25.706 0-46.545 20.838-46.545 46.545s20.839 46.545 46.545 46.545h139.636v139.636c0 25.706 20.838 46.545 46.545 46.545z" />
<glyph unicode="&#xe926;" glyph-name="more" d="M502.98-64c-1.96 0.31-3.91 0.66-5.87 0.91-45.57 5.87-83.82 39.95-95.060 84.7-12.81 50.99 10.48 103.69 56.81 128.47 14.14 7.57 29.23 11.99 45.25 13.010 32.69 2.080 61.3-7.84 85.43-29.93 19.060-17.45 30.99-39.11 34.94-64.69 5.98-38.78-4.98-72.4-32.7-100.17-16.77-16.8-37.25-26.9-60.7-30.85-3.19-0.54-6.4-0.96-9.6-1.44l-18.5-0.010zM518.98 960c2.13-0.3 4.25-0.64 6.39-0.89 48.86-5.64 88.71-41.88 98.43-90.090 12.86-63.8-28.74-121.49-87.38-134.16-56.51-12.21-113.55 20.12-131.95 75-18.030 53.79 6.28 112.63 57 138.020 13.27 6.64 27.3 10.49 42.080 11.68 0.82 0.070 1.62 0.29 2.43 0.44 4.33 0 8.67 0 13 0zM512.38 334.060c-62.87 0.030-113.9 51.1-113.83 113.92 0.070 62.78 51.030 113.66 113.8 113.63 63-0.030 113.86-50.93 113.76-113.85-0.1-62.85-51-113.74-113.72-113.7h-0.010z" />
<glyph unicode="&#xe927;" glyph-name="show" d="M510.876 64.299c-99.661 0.912-188.773 33.51-269.421 90.407-99.216 70.018-174.094 161.601-233.703 266.526-10.914 19.215-10.083 35.839 1.114 55.54 39.667 69.816 86.925 133.678 143.883 190.191 64.349 63.862 137.121 115.010 224.369 142.891 116.812 37.337 229.999 26.262 338.752-28.996 100.127-50.883 177.698-127.664 242.572-217.849 21.544-29.947 39.889-62.223 59.286-93.709 9.091-14.74 7.836-29.157-0.769-44.647-51.046-91.866-114.969-173.162-196.205-240.223-72.428-59.793-153.542-101.423-247.473-115.273-7.654-1.134-15.328-2.247-23.042-2.794-13.101-0.931-26.221-1.397-39.342-2.045zM511.766 754.679c-80.73-0.284-153.177-26.423-219.267-71.375-87.715-59.651-153.865-139.064-207.949-229.27-1.822-3.057-1.62-9.234 0.304-12.332 12.371-20.025 24.743-40.132 38.471-59.225 54.548-75.93 118.452-142.163 200.417-189.097 58.031-33.247 120.334-52.463 187.437-52.199 72.023 0.284 138.598 21.199 199.707 59.044 97.657 60.482 169.497 145.382 228.014 242.654 1.579 2.612 1.377 7.897-0.223 10.61-50.742 85.366-112.944 160.791-193.613 219.692-69.41 50.681-146.212 81.013-233.279 81.499zM679.24 447.15c-0.122-92.19-75.586-166.925-168.464-166.845-92.27 0.081-167.088 75.424-167.108 168.221 0 93.627 77.773 170.955 175.086 167.189 89.801-3.463 160.709-78.036 160.487-168.566zM602.438 447.495c0.081 50.56-40.496 91.521-90.671 91.521-50.093 0-91.015-40.294-91.279-89.901-0.284-50.601 40.132-91.846 90.185-92.007 50.601-0.182 91.684 40.294 91.764 90.407z" />
<glyph unicode="&#xe928;" glyph-name="phone-outline" d="M601.381 319.924c10.45 11.168 20.235 22.548 30.979 32.972 41.907 40.657 90.675 50.815 146.674 34.62 42.306-12.232 85.144-23.055 128.247-31.882 69.454-14.225 115.723-68.71 115.775-139.601 0-46.427 0.479-92.882-0.080-139.309-1.037-90.142-73.816-150.902-163.479-139.309-103.332 13.375-202.462 40.525-296.619 85.144-194.219 92.030-343.738 231.844-447.256 420.346-62.009 112.904-99.529 233.626-113.967 361.553-9.333 82.67 54.936 154.865 138.271 155.342 46.453 0.266 92.882 0.266 139.335 0 73.682-0.399 128.859-49.725 141.303-122.051 6.78-39.433 16.432-78.709 28.718-116.787 18.454-57.224 9.68-107.133-31.882-150.637-10.636-11.142-22.682-20.928-34.435-31.669 57.569-89.957 129.045-161.326 218.417-218.708zM211.109 867.959c-21.672 0-43.342 0.054-65.014 0-37.44-0.134-56.745-20.928-52.623-57.994 11.222-100.566 38.928-196.505 83.813-287.18 93.173-188.156 234.769-327.517 424.6-417.368 87.325-41.323 179.167-67.594 275.4-77.432 31.856-3.271 53.766 16.859 54.059 49.033 0.425 46.427 0.319 92.882 0.026 139.309-0.16 26.856-14.758 44.565-41.189 48.662-48.608 7.552-96.045 19.278-142.286 35.951-18.481 6.675-34.887 2.42-48.768-11.194-18.959-18.561-37.599-37.466-56.478-56.107-19.385-19.146-38.876-21.832-62.434-8.083-122.929 71.715-220.356 168.957-291.646 292.179-13.349 23.055-10.504 42.279 8.297 61.211 17.763 17.895 35.552 35.738 53.475 53.475 16.061 15.875 20.848 34.063 12.976 55.654-16.38 44.938-27.868 91.1-34.78 138.485-3.909 26.75-21.405 40.95-48.474 41.323-23.001 0.319-45.976 0.080-68.977 0.080z" />
<glyph unicode="&#xe929;" d="M1024 448c0-282.77-229.23-512-512-512s-512 229.23-512 512c0 282.77 229.23 512 512 512s512-229.23 512-512z" />
<glyph unicode="&#xe92a;" d="M673.939 542.059c18.746 18.745 18.746 49.137 0 67.882s-49.135 18.745-67.88 0l-94.059-94.059-94.059 94.059c-18.745 18.745-49.137 18.745-67.882 0s-18.745-49.137 0-67.882l94.059-94.059-94.059-94.059c-18.745-18.745-18.745-49.135 0-67.88s49.137-18.746 67.882 0l94.059 94.057 94.059-94.057c18.745-18.746 49.135-18.746 67.88 0s18.746 49.135 0 67.88l-94.057 94.059 94.057 94.059z" />
<glyph unicode="&#xe92b;" glyph-name="start" d="M969.166 613.437l-276.198 40.124-123.573 250.282c-21.63 43.708-93.176 43.708-114.806 0l-123.509-250.282-276.263-40.124c-52.283-7.615-73.465-72.122-35.453-109.238l199.918-194.799-47.164-275.114c-8.895-52.087 45.884-92.086 92.856-67.446l247.018 129.846 247.083-129.912c46.588-24.384 101.813 14.979 92.854 67.454l-47.166 275.108 199.918 194.799c37.951 37.181 16.771 101.687-35.515 109.302z" />
<glyph unicode="&#xe92c;" glyph-name="lock-outline" d="M232.82 540.081c0 44.827-0.467 87.84 0.208 130.828 0.311 19.744 1.555 39.645 4.482 59.156 17.516 116.316 120.462 214.781 237.505 227.944 155.289 17.465 286.841-81.544 312.493-235.639 2.539-15.21 2.903-30.887 3.057-46.355 0.389-44.697 0.13-89.421 0.13-136.579 20.082 0 38.945 0.906 57.705-0.156 69.909-3.99 127.563-61.281 128.418-131.086 1.4-113.312 1.4-226.675 0.025-339.985-0.881-72.37-62.887-131.112-136.165-131.916-50.423-0.57-100.848-0.13-151.272-0.13-165.938 0-331.875 0-497.814 0-86.078 0-145.467 59.286-145.467 145.286 0 105.589 0.078 211.153 0.181 316.743 0.103 82.295 59.492 141.658 141.866 141.917 14.2 0.052 28.399 0 44.619 0zM511.758 26.462c107.352 0 214.703-0.078 322.055 0.052 33.685 0.052 53.015 19.511 53.041 52.834 0.025 105.616 0.052 211.23 0 316.846 0 34.125-19.433 53.818-53.793 53.844-214.263 0.103-428.552 0.103-642.815 0-34.488 0-53.585-19.485-53.585-53.844 0-105.616 0-211.23 0.052-316.846 0-5.131 0.052-10.416 1.167-15.392 5.209-23.528 24.305-37.417 51.849-37.442 107.352-0.103 214.703-0.052 322.055-0.052zM324.623 540.807h374.94c0.311 4.017 0.803 7.36 0.803 10.702 0 37.053 0.259 74.133-0.336 111.16-0.286 18.474-0.208 37.312-3.757 55.296-20.238 102.429-115.955 167.052-219.237 149.018-79.289-13.862-145.312-81.984-151.375-161.766-4.042-53.145-1.865-106.756-2.436-160.159 0-1.192 0.725-2.384 1.347-4.223z" />
<glyph unicode="&#xe92d;" glyph-name="hide" d="M258.371 143.387c-2.064-3.097-3.704-6.658-6.274-9.249-33.23-33.433-66.501-66.805-99.954-99.995-13.337-13.235-29.467-15.887-45.312-8.155-13.823 6.74-23.536 21.857-20.541 37.116 1.821 9.29 6.679 19.327 13.196 26.127 29.547 30.882 60.106 60.794 90.482 90.888 2.57 2.55 6.415 3.804 8.176 4.796-29.709 30.498-57.9 57.515-83.865 86.517-42.094 47.012-77.753 98.739-107.988 154.231-8.398 15.401-8.378 29.588 0 44.846 34.951 63.749 77.308 122.094 126.789 175.278 46.83 50.331 99.185 93.822 159.595 127.052 80.749 44.422 166.9 64.984 259.163 56.503 73.362-6.76 140.612-31.752 202.863-70.508 6.881-4.29 10.442-3.704 15.928 1.862 33.534 34.060 67.392 67.796 101.31 101.492 12.871 12.79 28.758 15.442 44.442 8.075 14.066-6.618 23.981-21.371 21.108-36.752-1.801-9.593-6.8-19.975-13.519-27.017-29.263-30.68-59.641-60.308-89.714-90.219-2.611-2.591-6.011-4.351-9.613-6.921 14.005-12.953 26.228-23.84 37.986-35.234 62.838-60.835 114.808-129.905 156.397-206.85 8.075-14.956 5.586-28.879-2.226-43.066-29.467-53.528-64.255-103.333-104.143-149.557-49.805-57.718-106.026-107.948-172.364-146.197-82.044-47.316-169.977-69.921-264.87-62.009-74.131 6.193-142.109 30.984-205.21 69.82-2.57 1.578-5.16 3.137-7.792 4.614-0.547 0.304-1.295 0.263-1.942 0.384-0.708 0.708-1.396 1.396-2.105 2.105zM318.761 197.523s0.202-0.668 0.688-1.052c1.052-0.809 2.226-1.478 3.4-2.146 57.313-32.947 118.674-51.97 185.093-52.679 83.663-0.89 158.36 26.653 226.359 73.705 84.776 58.649 149.192 135.916 202.538 223.201 4.27 7.002 4.21 12.001 0.020 18.882-36.226 59.459-78.32 114.261-128.55 162.61-11.758 11.334-24.285 21.877-35.962 32.36-40.293-39.139-79.534-77.247-118.269-114.869 43.227-74.393 27.219-154.515-21.169-205.737-47.113-49.886-132.577-71.904-207.76-27.928-35.517-35.497-70.893-70.852-106.39-106.349zM367.838 360.517c-44.807 78.32-20.986 159.656 22.019 202.093 62.13 61.321 133.609 68.404 209.44 29.972 35.456 35.456 70.63 70.609 106.004 105.965-0.405 0.345-1.295 1.396-2.409 1.983-12.79 6.679-25.378 13.862-38.512 19.832-62.291 28.373-127.376 39.605-195.638 31.268-72.694-8.904-136.625-38.735-194.707-81.962-77.207-57.495-137.192-130.311-187.037-212.071-4.27-7.002-4.472-11.859-0.223-18.841 36.387-59.782 78.705-114.829 129.238-163.358 11.556-11.091 23.82-21.412 35.133-31.53 39.525 39.525 78.056 78.056 116.691 116.691zM539.676 533.772c-26.572 12.041-66.036 3.724-89.896-19.61-26.997-26.41-36.307-64.478-23.799-93.943 37.743 37.702 75.871 75.769 113.695 113.554zM598.871 475.103c-38.29-38.351-76.114-76.235-113.959-114.141 32.765-9.168 63.385-3.299 89.167 21.169 27.422 26.025 34.343 57.94 24.791 92.973z" />
<glyph unicode="&#xe92e;" glyph-name="coupon" d="M511.472 866.058c153.156 0 306.311 0 459.445 0 35.065 0 52.951-17.732 52.995-52.796 0.088-71.609 0.088-143.241 0-214.85-0.044-34.777-14.199-49.55-48.732-51.383-56.24-2.959-92.918-42.948-92.565-100.955 0.331-55.556 38.686-95.125 94.176-97.202 31.268-1.17 47.011-17.024 47.078-48.424 0.177-72.713 0.177-145.449 0-218.163-0.088-34.425-18.195-52.333-52.399-52.333-306.311-0.021-612.621 0-918.911 0-34.138 0-52.399 18.063-52.465 52.267-0.132 71.985-0.111 143.97 0 215.954 0.067 34.138 14.308 48.976 48.16 50.787 43.367 2.318 77.88 27.955 88.391 65.625 12.94 46.305-1.061 92.498-35.153 115.265-16.561 11.041-35.065 16.538-54.894 17.246-29.898 1.061-46.216 17.421-46.238 46.9-0.044 73.818-0.044 147.635 0 221.475 0 32.085 18.371 50.522 50.522 50.544 153.508 0.067 307.040 0.021 460.549 0.021zM940.221 781.618h-855.45c-0.398-2.098-0.905-3.512-0.905-4.925-0.044-47.74 0.088-95.48-0.22-143.241-0.044-7.464 4.527-7.883 9.561-9.274 32.173-8.789 60.128-24.776 83.533-48.711 80.509-82.342 66.443-264.047-84.88-303.749-6.933-1.811-8.259-5.233-8.192-11.548 0.287-23.87 0.111-47.74 0.111-71.609 0-24.51 0-49.043 0-73.951h855.758v154.437c-3.29 0.994-6.558 1.546-9.473 2.893-19.211 8.877-40.32 15.192-57.147 27.38-64.035 46.348-83.069 111.489-69.821 186.696 12.609 71.565 56.792 116.456 125.664 137.257 9.229 2.782 11.769 6.404 11.659 15.589-0.464 43.324-0.22 86.668-0.22 130.014 0 3.975 0 7.972 0 12.719zM564.245 448.479c0 76.335-0.044 152.67 0.021 229.005 0.021 23.561 8.502 37.339 26.94 44.669 23.229 9.229 50.301-5.19 55.381-29.677 0.95-4.615 1.302-9.452 1.302-14.199 0.067-153.399 0.067-306.796 0.021-460.195 0-26.343-13.823-43.478-37.163-46.658-22.147-3.002-43.566 13.668-45.973 35.97-0.552 5.101-0.53 10.268-0.53 15.391-0.021 75.232 0 150.461 0 225.693z" />
<glyph unicode="&#xe92f;" glyph-name="cart-food" d="M299.058 326.685c6.689-10.866 15.634-20.249 26.264-27.541 10.628-7.292 22.706-12.335 35.453-14.803 10.12-1.933 20.426-2.797 30.737-2.577 158.062-0.156 316.126-0.156 474.188 0 4.987 0.14 9.975-0.213 14.889-1.053 4.49-1.152 8.465-3.715 11.308-7.294 2.842-3.577 4.397-7.971 4.418-12.497 0.023-4.527-1.486-8.936-4.293-12.54-2.808-3.606-6.755-6.206-11.233-7.4-4.894-0.888-9.873-1.267-14.85-1.133-158.409 0-316.806 0-475.189 0-81.246 0-143.040 50.306-158.651 128.206-32.577 162.719-65.316 325.487-98.215 488.31-1.2 6.010-3.602 7.805-9.805 7.805-33.352-0.286-66.704-0.286-100.056 0-15.689 0-24.333 8.001-24.013 21.231 0 11.709 7.324 20.177 19.732 20.333 43.024 0.546 86.009 0.507 129.033 0 11.327 0 20.812-10.108 23.173-22.245 6.11-31.222 12.233-62.444 18.371-93.666 0.48-2.537 1.279-4.995 2.201-8.625h800.813c4.331 0.19 8.67 0.007 12.967-0.546 2.908-0.329 5.705-1.277 8.196-2.775s4.614-3.511 6.22-5.896c1.607-2.386 2.657-5.085 3.078-7.909s0.201-5.704-0.645-8.436c-28.123-110.136-56.312-220.388-84.569-330.757-0.766-3.855-2.826-7.35-5.855-9.937s-6.854-4.116-10.873-4.347c-52.136-6.972-104.274-13.998-156.408-21.074-76.23-10.278-152.461-20.503-228.691-30.676s-152.153-20.229-227.769-30.168c-3.001-0.351-5.803-1.131-9.926-1.99zM789.964 198.124c21.11-0.086 41.722-6.27 59.229-17.774 17.506-11.503 31.124-27.807 39.131-46.856 8.009-19.047 10.046-39.98 5.857-60.158-4.189-20.175-14.419-38.689-29.393-53.198s-34.025-24.367-54.741-28.323c-20.718-3.956-42.172-1.836-61.654 6.094s-36.116 21.312-47.801 38.457c-11.686 17.144-17.897 37.282-17.849 57.867 0.095 27.64 11.444 54.111 31.55 73.594s47.327 30.38 75.671 30.297v0zM255.948 94.038c0.009 20.583 6.272 40.701 17.999 57.813 11.727 17.114 28.393 30.455 47.892 38.335s40.954 9.951 61.659 5.948c20.703-4.003 39.726-13.9 54.666-28.44s25.123-33.073 29.268-53.253c4.145-20.183 2.062-41.109-5.986-60.138-8.045-19.029-21.695-35.302-39.222-46.772-17.529-11.467-38.148-17.613-59.254-17.66-28.357-0.020-55.56 10.941-75.628 30.475-20.070 19.534-31.362 46.040-31.394 73.69v0z" />
<glyph unicode="&#xe930;" glyph-name="edit" d="M512-12.8c-254.493 0-460.8 206.305-460.8 460.8 0 254.493 206.307 460.8 460.8 460.8 254.495 0 460.8-206.307 460.8-460.8 0-254.495-206.305-460.8-460.8-460.8zM512-64c282.767 0 512 229.233 512 512 0 282.77-229.233 512-512 512-282.77 0-512-229.23-512-512 0-282.767 229.23-512 512-512zM665.933 692.87c7.076 0 13.875-2.449 19.318-7.89l63.657-63.666c10.609-10.611 10.609-27.751 0-38.363l-49.782-49.79-102.016 102.028 49.782 49.79c5.171 5.17 12.242 7.89 19.041 7.89zM567.997 529.107l25.027-25.031-246.471-246.499h-25.028v25.032l246.473 246.498zM267.125 305.147l300.877 300.916 102.016-102.028-300.877-300.914h-102.016v102.026z" />
<glyph unicode="&#xe931;" d="M512 959.999c-193.423 0-395.638-137.428-395.638-363.781 0-214.229 351.678-541.63 364.866-553.753 8.792-8.085 17.584-12.13 30.771-12.13s21.98 4.045 30.771 12.13c13.188 12.124 364.865 339.525 364.865 553.753 0 226.353-202.215 363.781-395.637 363.781zM512 474.958c-74.731 0-131.879 52.546-131.879 121.261s57.148 121.26 131.879 121.26c74.732 0 131.879-52.545 131.879-121.26s-57.147-121.261-131.879-121.261z" />
<glyph unicode="&#xe932;" d="M867.544 30.309c0-52.083-159.184-94.309-355.551-94.309s-355.553 42.227-355.553 94.309c0 52.090 159.186 94.316 355.553 94.316s355.551-42.227 355.551-94.316z" />
<glyph unicode="&#xe933;" d="M512 960c-187.732 0-383.998-137.428-383.998-363.781 0-214.227 341.331-541.628 354.131-553.756 8.534-8.083 17.067-12.128 29.867-12.128s21.333 4.045 29.867 12.128c12.8 12.128 354.131 339.53 354.131 553.756 0 226.353-196.266 363.781-383.998 363.781zM512 474.959c-72.533 0-127.999 52.546-127.999 121.26s55.467 121.26 127.999 121.26c72.533 0 127.999-52.547 127.999-121.26s-55.467-121.26-127.999-121.26z" />
</font>
</defs>
</svg>
